PathFileType	4	(X/Y/Z)	C:/Users/opensim2020/Desktop/walking_exp_matlab/subject06_walking20_straight_03.trc																																																																																																																															
DataRate	CameraRate	NumFrames	NumMarkers	Units	OrigDataRate	OrigDataStartFrame	OrigNumFrames																																																																																																																											
100	100	5	43	mm	100	1681	132																																																																																																																											
Frame#	Time	LFHD			RFHD			LBHD			RBHD			C7			T10			CLAV			STRN			RBAK			LSHO			LUPA			LELB			LFRM			LWRA			LWRB			LFIN			RSHO			RUPA			RELB			RFRM			RWRA			RWRB			RFIN			LASI			RASI			LPSI			RPSI			LTHI			LKNE			LTIB			LANK			LHEE			LTOE			RTHI			RKNE			RTIB			RANK			RHEE			RTOE			*39			*40			*41			*42		
		X1	Y1	Z1	X2	Y2	Z2	X3	Y3	Z3	X4	Y4	Z4	X5	Y5	Z5	X6	Y6	Z6	X7	Y7	Z7	X8	Y8	Z8	X9	Y9	Z9	X10	Y10	Z10	X11	Y11	Z11	X12	Y12	Z12	X13	Y13	Z13	X14	Y14	Z14	X15	Y15	Z15	X16	Y16	Z16	X17	Y17	Z17	X18	Y18	Z18	X19	Y19	Z19	X20	Y20	Z20	X21	Y21	Z21	X22	Y22	Z22	X23	Y23	Z23	X24	Y24	Z24	X25	Y25	Z25	X26	Y26	Z26	X27	Y27	Z27	X28	Y28	Z28	X29	Y29	Z29	X30	Y30	Z30	X31	Y31	Z31	X32	Y32	Z32	X33	Y33	Z33	X34	Y34	Z34	X35	Y35	Z35	X36	Y36	Z36	X37	Y37	Z37	X38	Y38	Z38	X39	Y39	Z39	X40	Y40	Z40	X41	Y41	Z41	X42	Y42	Z42	X43	Y43	Z43
																																																																																																																																		
1	0	-910.08173	1648.16638	-1034.04382	-914.3822	1627.61584	-905.14325	-1048.97742	1606.84351	-1040.755	-1050.61694	1591.46289	-912.16046	-1065.12463	1446.43164	-992.55414	-1132.42676	1122.91724	-980.32831	-963.26904	1358.16003	-995.69861	-941.24634	1180.55835	-1007.89587	-1151.2196	1282.6991	-912.14008	-1015.53058	1399.15649	-1155.13708	-1028.21326	1201.30334	-1238.2146	-1031.81287	1088.65454	-1258.29822	-989.27881	946.64172	-1289.56848	-908.66974	841.10516	-1257.72998	-971.599	828.81195	-1290.63281	-919.77448	754.94757	-1299.33752	-1001.92908	1392.70752	-832.09314	-1073.27637	1207.77747	-741.53442	-1087.5072	1086.59875	-726.3927	-1085.48767	966.59119	-708.45056	-1037.34644	824.61377	-738.83563	-1092.90552	828.52661	-701.5614	-1061.27051	751.41443	-698.18427	-980.8479	949.58838	-1104.94824	-963.4281	950.02283	-885.15894	-1132.13818	991.52936	-1060.71899	-1112.65417	983.79028	-894.00165	-1080.7926	649.27484	-1170.06763	-1096.0304	485.84924	-1157.19482	-1177.0863	238.11943	-1164.04468	-1210.24878	62.48955	-1126.18018	-1253.94421	49.58941	-1083.45105	-1069.7157	35.91484	-1122.52405	-934.48816	631.71643	-831.44739	-880.20624	520.04144	-864.39056	-968.46832	275.18787	-884.30713	-1042.3092	108.39818	-936.8454	-1091.01855	96.91587	-980.12567	-907.11298	43.35246	-951.71326	-1008.94116	1691.28589	-974.70984	NaN	NaN	NaN	NaN	NaN	NaN	NaN	NaN	NaN
2	0.01	-899.98871	1646.68652	-1035.69238	-904.76489	1626.15247	-906.60071	-1038.58362	1605.13257	-1043.03235	-1040.89124	1589.71375	-914.46051	-1054.91687	1445.00635	-995.10248	-1122.7356	1121.63403	-982.97321	-953.0614	1356.50037	-997.22729	-931.26031	1178.88562	-1009.54889	-1141.72534	1281.37781	-915.3667	-1004.09351	1397.45129	-1157.276	-1013.86346	1199.80078	-1241.04553	-1015.23645	1087.20667	-1261.82861	-967.36584	946.76624	-1292.69641	-882.70679	844.86353	-1260.20496	-944.80475	829.6731	-1293.2041	-889.92279	758.32318	-1301.67273	-992.9165	1391.05273	-834.05017	-1066.58594	1206.79065	-744.27356	-1082.04224	1085.72998	-729.03833	-1082.10229	965.6629	-710.78937	-1036.15234	822.56482	-740.19568	-1092.21436	827.80774	-703.34216	-1061.66614	749.97272	-699.37024	-970.17053	948.12701	-1107.25476	-954.40479	948.43268	-887.55042	-1122.66138	990.00842	-1062.89954	-1103.23706	982.47815	-896.14484	-1073.25598	647.65173	-1170.98462	-1090.49915	484.37354	-1157.44763	-1174.02905	237.52872	-1163.82825	-1209.6311	62.66627	-1125.70105	-1253.38367	50.07245	-1082.9834	-1068.96887	35.47066	-1122.83948	-923.31287	631.46942	-831.39337	-867.93994	520.54645	-864.67151	-946.34338	271.80502	-885.3819	-1010.56885	101.27734	-939.28424	-1057.10974	86.88656	-983.70923	-872.05396	42.64656	-951.58411	-999.05865	1689.58801	-976.76074	NaN	NaN	NaN	NaN	NaN	NaN	NaN	NaN	NaN
3	0.02	-889.5434	1645.08081	-1037.07813	-895.02563	1624.57117	-907.99908	-1028.04724	1603.29675	-1045.20911	-1030.84265	1588.05273	-916.61066	-1044.3114	1443.25171	-997.47168	-1112.88074	1120.11035	-985.42194	-942.70636	1354.74011	-998.90686	-921.20056	1177.05042	-1011.2403	-1132.10938	1279.94629	-918.36383	-992.53156	1395.92151	-1159.21484	-999.49969	1198.25342	-1243.58423	-998.35205	1085.46704	-1264.74133	-945.48212	947.1355	-1295.51978	-856.81354	849.11719	-1262.38293	-918.01709	831.14209	-1295.46851	-859.96057	762.38263	-1303.72729	-983.64697	1389.27808	-835.97021	-1059.64636	1205.66638	-747.0705	-1076.32227	1084.73132	-731.62225	-1078.64539	964.66943	-712.98499	-1035.14136	820.49524	-741.41254	-1091.41589	827.08087	-705.06567	-1062.47974	748.64368	-700.54712	-960.4895	946.06299	-1109.26807	-944.57471	947.03864	-889.26447	-1112.92273	988.29529	-1065.00378	-1093.78674	980.95447	-898.10742	-1065.47559	645.85614	-1171.65552	-1084.39807	482.7388	-1157.82617	-1170.55981	236.83308	-1163.69116	-1208.68982	62.91244	-1125.11926	-1252.85815	50.75767	-1082.40051	-1068.24902	35.17512	-1122.75073	-912.69299	631.37109	-831.60065	-856.09735	520.74261	-864.85577	-924.51666	268.70203	-886.52411	-978.47345	94.77644	-941.29468	-1023.31262	78.31747	-986.59589	-837.19885	42.21199	-950.8869	-988.99469	1687.82703	-978.79993	NaN	NaN	NaN	NaN	NaN	NaN	NaN	NaN	NaN
4	0.03	-878.8656	1643.26367	-1038.34619	-885.11249	1622.81128	-909.29834	-1017.44183	1601.34534	-1047.25623	-1020.72675	1586.021	-918.69824	-1033.83301	1441.52698	-999.69592	-1102.89258	1118.47473	-987.70068	-932.22894	1352.78735	-1000.53357	-911.00964	1175.04333	-1012.84808	-1122.30847	1278.40759	-921.1579	-981.00018	1394.06506	-1161.08557	-985.19037	1196.77112	-1246.0968	-982.24506	1084.32861	-1268.11267	-923.69806	947.78418	-1297.99597	-831.0882	853.88708	-1264.24792	-891.22955	832.91943	-1297.17371	-829.94135	767.10938	-1305.46069	-974.04761	1387.30835	-837.79779	-1052.03052	1204.37109	-749.30524	-1070.35144	1083.66943	-734.11633	-1074.89954	963.58344	-715.21344	-1033.24548	818.58801	-742.47314	-1090.30981	826.06207	-706.99567	-1063.36841	747.33307	-701.724	-950.46851	943.97986	-1111.02161	-934.61719	945.6861	-891.04071	-1102.99365	986.43372	-1066.96814	-1083.89746	979.20648	-900.15924	-1057.31335	643.8717	-1172.04102	-1078.55042	481.0058	-1157.62268	-1166.80273	236.05766	-1163.49365	-1207.50488	63.044	-1124.41687	-1252.31396	51.29305	-1081.8573	-1067.8783	34.5441	-1122.17371	-902.15155	630.4184	-831.83643	-844.41254	520.39697	-865.13519	-902.43524	265.58542	-887.33142	-946.20288	88.97278	-942.836	-989.27625	70.66702	-988.99286	-802.56433	41.90202	-949.70618	-978.78949	1685.90466	-980.63843	NaN	NaN	NaN	NaN	NaN	NaN	NaN	NaN	NaN
5	0.04	-868.20319	1641.36475	-1039.58337	-875.05481	1620.89404	-910.5899	-1006.6601	1599.27612	-1049.17114	-1010.56744	1583.94763	-920.63367	-1023.14227	1439.5592	-1001.7561	-1092.70032	1116.63391	-989.90472	-921.65265	1350.68591	-1001.97974	-900.67639	1172.90039	-1014.4386	-1112.31445	1276.71301	-923.81689	-969.41956	1392.28052	-1162.87488	-970.76318	1195.11157	-1248.20361	-965.74377	1082.84668	-1270.79675	-901.98328	948.6239	-1300.13416	-805.56934	859.16827	-1265.85718	-864.56134	835.27289	-1298.67249	-800.38263	772.48761	-1306.72815	-964.34027	1385.24463	-839.50897	-1044.62366	1203.02502	-751.87964	-1064.0094	1082.42542	-736.55048	-1071.01245	962.50568	-717.23944	-1033.06836	816.14911	-743.80475	-1089.33423	825.31415	-708.54834	-1063.95825	745.90802	-702.86334	-940.44379	941.75305	-1112.79016	-924.80408	943.35266	-892.62317	-1092.90881	984.38806	-1068.8833	-1074.03003	977.37689	-901.97839	-1049.15271	641.89935	-1172.81274	-1071.93347	479.16418	-1157.57483	-1162.99841	235.25673	-1163.36157	-1206.74475	63.37789	-1123.96021	-1251.7251	52.00121	-1081.25598	-1067.22827	34.16343	-1121.87976	-891.31049	629.3819	-831.4447	-833.07574	519.73462	-865.15332	-880.63269	262.64722	-888.19073	-913.72723	83.7627	-944.04376	-955.35663	64.21471	-990.78333	-768.11609	41.68637	-948.26227	-968.49261	1683.77637	-982.39429	NaN	NaN	NaN	NaN	NaN	NaN	NaN	NaN	NaN
